<svg width="36" height="37" viewBox="0 0 36 37" fill="none" xmlns="http://www.w3.org/2000/svg">
<path fill-rule="evenodd" clip-rule="evenodd" d="M7.23249 0.912477C6.96613 0.989664 6.73692 1.06339 6.72308 1.07633C6.69153 1.10582 7.82223 5.56688 7.88837 5.67397C7.9238 5.73129 8.06597 5.7209 8.41494 5.63555C8.67785 5.57131 8.91938 5.49495 8.95169 5.46594C8.99555 5.42662 8.10589 1.73176 7.84804 0.882294C7.80438 0.738512 7.83884 0.736782 7.23249 0.912477ZM24.6486 1.00697C24.4042 1.17823 24.3649 1.30949 24.183 2.56102C24.0883 3.21251 23.9784 3.80612 23.9388 3.88019C23.8156 4.11036 23.5541 4.23968 23.317 4.18755C23.1415 4.14899 22.9585 3.94831 22.3078 3.08091C21.4676 1.9609 21.282 1.80452 20.9451 1.93273C20.8436 1.97136 20.3631 2.30322 19.8773 2.67026L18.9941 3.33767L18.366 3.29807C16.5389 3.18308 14.5447 3.60986 12.8194 4.48529C11.7233 5.04138 10.8817 5.65458 9.99992 6.53936C8.16844 8.37703 7.09322 10.5822 6.77172 13.16C6.69049 13.8111 6.67818 13.8448 6.52168 13.8448C6.43111 13.8448 6.27199 13.9305 6.16807 14.0352C6.00839 14.1961 5.94785 14.3786 5.77759 15.212C5.66668 15.7546 5.55066 16.1985 5.51959 16.1985C5.4886 16.1985 5.09853 15.9426 4.65277 15.6297C3.48747 14.8118 3.58122 14.7932 2.28233 16.1008C1.40886 16.9801 1.24793 17.1746 1.24793 17.3506C1.24793 17.4986 1.41841 17.8079 1.83601 18.4178C2.15945 18.8902 2.42409 19.2937 2.42409 19.3144C2.42409 19.3353 1.98047 19.443 1.43819 19.554C0.605199 19.7243 0.422825 19.7849 0.262038 19.9447L0.0717773 20.1337V21.4943V22.8548L0.262038 23.044C0.422479 23.2036 0.604023 23.2643 1.4209 23.4313C1.95363 23.5403 2.40299 23.6401 2.41952 23.6533C2.43599 23.6665 2.17537 24.0801 1.84037 24.5723C1.29443 25.3745 1.23562 25.4913 1.27422 25.6971C1.30743 25.8741 1.5437 26.1528 2.30599 26.9142C3.58738 28.1941 3.48685 28.1738 4.63409 27.3833C5.10752 27.057 5.51316 26.7901 5.53551 26.7901C5.55778 26.7901 5.66668 27.2339 5.77759 27.7765C5.94785 28.61 6.00839 28.7925 6.16807 28.9534L6.35702 29.1437H7.71679H9.07657L9.26551 28.9534C9.42519 28.7925 9.48573 28.61 9.656 27.7765C9.7669 27.234 9.8758 26.7901 9.89808 26.7901C9.92042 26.7901 10.3261 27.057 10.7995 27.3833C11.877 28.1258 11.9115 28.1262 12.6351 27.4071L13.133 26.9121L13.1602 28.0107C13.1835 28.9499 13.209 29.1566 13.3362 29.4368C13.5303 29.8643 13.7891 30.1988 14.0801 30.3983L14.3145 30.559L14.3365 32.4646L14.3586 34.3703L14.5524 34.7856C14.8042 35.3255 15.2075 35.731 15.7342 35.974C16.1489 36.1654 16.1869 36.1699 17.6071 36.1933C19.1905 36.2195 19.717 36.158 20.1702 35.8944C20.5868 35.6521 20.9638 35.2453 21.1656 34.8203C21.3451 34.4423 21.3465 34.4256 21.3692 32.5012L21.392 30.5629L21.6652 30.3717C21.8155 30.2666 22.0321 30.0329 22.1464 29.8525C22.5074 29.2832 22.5571 28.9881 22.5571 27.4151C22.5571 25.119 22.7618 24.6414 24.1748 23.6413C25.1054 22.9827 25.2864 22.8172 25.2132 22.6919C25.1793 22.6339 25.0099 22.4299 24.8367 22.2386L24.5218 21.8907L24.2832 22.0909C24.152 22.2009 23.7545 22.4989 23.4 22.753C22.3938 23.474 21.89 24.1114 21.5768 25.0594C21.4465 25.4537 21.4231 25.7245 21.3873 27.2456L21.3464 28.9819L21.1525 29.2359C20.7879 29.7139 20.8596 29.7043 17.7996 29.6825L15.0505 29.6629L14.8246 29.5017C14.3844 29.1876 14.3628 29.087 14.3181 27.1362C14.2728 25.1546 14.2219 24.9026 13.7071 24.1094C13.3692 23.5888 13.0507 23.2824 12.2485 22.7063C11.3877 22.0881 10.9494 21.7056 10.3696 21.0671C9.15509 19.7292 8.32064 18.015 7.94898 16.0947C7.8057 15.3544 7.82728 13.2691 7.98586 12.5295C8.62451 9.55131 10.3769 7.13366 12.9153 5.72873C14.24 4.99562 15.6022 4.59238 17.1779 4.46702C17.6906 4.42624 17.7141 4.43074 17.7141 4.57023C17.7141 4.77902 17.7858 4.89372 18.5868 5.96679C19.3296 6.96198 19.4301 7.20386 19.2167 7.48208C19.0026 7.76106 18.8805 7.76784 17.5389 7.57498C16.1279 7.37215 15.9393 7.38945 15.7813 7.73641C15.657 8.00937 15.19 11.4239 15.2465 11.646C15.326 11.9582 15.5577 12.0454 16.7796 12.223C17.4112 12.3149 18.0052 12.4094 18.0994 12.4331C18.4514 12.5214 18.596 13.0358 18.3526 13.3333C18.2868 13.4137 17.7936 13.8085 17.2565 14.2107C16.2748 14.9459 16.192 15.0334 16.192 15.3364C16.192 15.5231 18.379 18.4958 18.6055 18.6171C18.9044 18.7772 19.0823 18.6957 20.114 17.9262C20.6776 17.5059 21.2075 17.1446 21.2915 17.1234C21.5205 17.0657 21.8179 17.1907 21.9316 17.3925C22.0215 17.5521 22.0152 17.6991 21.8735 18.7369C21.786 19.3778 21.725 20.0236 21.738 20.1721C21.7776 20.6274 21.906 20.6769 23.7389 20.9433C25.6619 21.2228 25.9635 21.2357 26.153 21.046C26.3219 20.8771 26.3258 20.8601 26.5323 19.4175C26.6868 18.3386 26.7158 18.2277 26.8814 18.0849C27.0612 17.9298 27.2855 17.8895 27.5035 17.9732C27.5666 17.9974 27.9463 18.4569 28.3472 18.9943C28.7482 19.5317 29.1385 20.0259 29.2144 20.0925C29.5368 20.3751 29.7162 20.289 31.3436 19.0699C32.8812 17.9181 33.058 17.7381 32.9755 17.4091C32.9556 17.3295 32.5998 16.8125 32.1849 16.2602C31.7701 15.7079 31.4103 15.1918 31.3854 15.1134C31.322 14.9133 31.4436 14.6348 31.655 14.4962C31.8248 14.3848 31.9012 14.3881 33.143 14.561C34.4822 14.7475 34.6739 14.7416 34.8676 14.508C34.9488 14.4101 35.4887 11.0489 35.4932 10.6124C35.4941 10.5288 35.4248 10.3795 35.3392 10.2805C35.1955 10.1143 35.0803 10.0852 33.8445 9.90353C33.0194 9.78224 32.4682 9.66927 32.4081 9.60918C32.2477 9.44865 32.178 9.10411 32.2687 8.92024C32.3131 8.83032 32.7691 8.43885 33.2821 8.05028C34.3216 7.26305 34.5262 7.06022 34.5262 6.81716C34.5262 6.71049 34.1501 6.14581 33.4798 5.24615C32.1604 3.47522 32.1471 3.46096 31.8194 3.46096C31.5973 3.46096 31.4131 3.57054 30.5351 4.22535C29.9715 4.64569 29.4425 5.00677 29.3597 5.02761C29.1222 5.08749 28.8275 4.90667 28.7443 4.64998C28.6865 4.47165 28.7051 4.18291 28.8289 3.33552C29.0284 1.96942 29.0289 1.85083 28.8357 1.6262C28.6882 1.45458 28.5821 1.43091 26.812 1.17443C25.7846 1.02552 24.9121 0.902785 24.873 0.901678C24.8338 0.900501 24.7329 0.947921 24.6486 1.00697ZM27.7285 2.52039C27.7437 2.53561 27.7041 2.90147 27.6405 3.33337C27.4758 4.45213 27.4876 4.81889 27.7022 5.24248C28.1296 6.08655 29.1812 6.45331 29.9937 6.04176C30.1083 5.98368 30.538 5.68671 30.9484 5.38177C31.3588 5.07683 31.704 4.83917 31.7156 4.85371C31.9947 5.20296 33.017 6.60035 33.0391 6.66279C33.0562 6.71139 32.7803 6.96115 32.408 7.23376C31.3169 8.03305 31.0503 8.414 31.0499 9.17465C31.0495 9.87895 31.4586 10.5041 32.0936 10.7696C32.2304 10.8269 32.7618 10.9353 33.2742 11.0107C33.7867 11.086 34.2147 11.1564 34.2253 11.167C34.2359 11.1776 34.1685 11.6833 34.0756 12.2906C33.9826 12.898 33.9058 13.413 33.905 13.4352C33.9043 13.4574 33.5066 13.4164 33.0214 13.344C32.5363 13.2716 31.9799 13.2273 31.785 13.2458C30.7416 13.3442 30.026 14.3174 30.2396 15.3472C30.3022 15.6486 30.436 15.8801 30.9342 16.5484C31.2735 17.0037 31.5512 17.3877 31.5512 17.4019C31.5512 17.4161 31.134 17.7411 30.624 18.1242L29.6969 18.8207L29.0846 18.0134C28.2941 16.9709 28.0202 16.7862 27.2671 16.7885C26.6393 16.7905 26.3 16.9413 25.9175 17.3884C25.6229 17.7327 25.5062 18.1071 25.3883 19.0845C25.3415 19.4725 25.2806 19.8266 25.253 19.8713C25.2153 19.9323 24.9261 19.9135 24.0875 19.7951C22.8025 19.6138 22.9149 19.7366 23.076 18.6906C23.2316 17.6806 23.2136 17.3175 22.9865 16.8826C22.6428 16.2243 21.9921 15.8685 21.2677 15.9428C20.8138 15.9893 20.6143 16.0955 19.7316 16.7604L19.0096 17.3043L18.3272 16.3934C17.952 15.8925 17.6449 15.4609 17.6449 15.4344C17.6449 15.408 17.9866 15.1279 18.4042 14.8123C18.8217 14.4965 19.2428 14.1237 19.3398 13.9836C19.9236 13.1405 19.6709 11.9714 18.7935 11.457C18.565 11.323 18.2572 11.2462 17.4985 11.1339C16.9512 11.0529 16.4939 10.979 16.4823 10.9698C16.4482 10.9425 16.7623 8.7613 16.808 8.708C16.831 8.68121 17.27 8.72129 17.7836 8.79709C19.0286 8.98082 19.4665 8.89636 19.9913 8.37135C20.3106 8.05181 20.4293 7.7747 20.4658 7.26339C20.508 6.67456 20.3858 6.39316 19.6869 5.46989C19.3957 5.08513 19.1674 4.7424 19.1795 4.70827C19.2008 4.64853 20.9335 3.32251 20.9903 3.32251C21.0056 3.32251 21.2869 3.68054 21.6153 4.11805C21.9438 4.55562 22.329 4.98939 22.4713 5.08209C23.2063 5.56051 24.0732 5.45494 24.7166 4.80871C25.0282 4.49561 25.1426 4.15855 25.2912 3.11483C25.3535 2.67697 25.4148 2.28467 25.4274 2.243C25.4433 2.19059 25.7964 2.21731 26.5756 2.32995C27.1944 2.41945 27.7132 2.50516 27.7285 2.52039ZM1.96954 4.46792C1.7918 4.71713 1.65793 4.93007 1.67197 4.94107C1.91917 5.13401 5.65195 7.77469 5.70778 7.79615C5.77773 7.82301 6.47795 6.93644 6.4242 6.88909C6.26348 6.74752 2.38811 4.01476 2.34805 4.01476C2.31761 4.01476 2.14728 4.2187 1.96954 4.46792ZM24.3812 6.4718C22.9508 6.78303 21.7738 7.70858 21.146 9.01564C20.7797 9.77816 20.6675 10.2716 20.6696 11.1104C20.6726 12.3705 21.1288 13.4556 22.0411 14.3736C22.5076 14.8431 22.7099 14.9892 23.2536 15.2496C24.1103 15.6599 24.5071 15.7494 25.4283 15.7407C26.047 15.7347 26.2929 15.6997 26.7428 15.553C28.0282 15.1342 28.9936 14.2866 29.5867 13.0558C30.4623 11.2383 30.0031 8.95188 28.4861 7.57706C27.9664 7.10597 27.0036 6.61309 26.3277 6.47193C25.7358 6.34837 24.9487 6.3483 24.3812 6.4718ZM13.0253 7.78695C11.3735 8.98954 10.2073 10.8053 9.80129 12.8064C9.158 15.9771 10.4587 19.2541 13.1133 21.1506C13.4177 21.3681 14.1345 21.7723 14.7061 22.0489C15.6586 22.5097 15.7838 22.5923 16.205 23.0391C16.7339 23.6001 17.0659 24.2295 17.1715 24.8713C17.3074 25.6974 17.2278 25.6132 17.8738 25.6132H18.4459L18.3982 25.1459C18.3331 24.5088 18.2759 24.2695 18.0626 23.7418C17.8193 23.1399 17.451 22.597 16.9641 22.1224C16.434 21.6057 16.1819 21.4413 15.2303 20.9923C14.195 20.5037 13.6261 20.1313 12.9876 19.5245C11.8178 18.4126 11.0513 16.8635 10.8611 15.2272C10.5782 12.7918 11.647 10.2824 13.5803 8.84306C13.8372 8.65186 14.0473 8.47035 14.0473 8.43968C14.0473 8.38907 13.4959 7.47605 13.4653 7.47605C13.4582 7.47605 13.2602 7.61596 13.0253 7.78695ZM26.1753 7.64836C27.427 7.97455 28.4253 8.96469 28.7587 10.2105C29.0649 11.3544 28.6914 12.6691 27.8096 13.5514C26.4263 14.9355 24.2588 14.927 22.8646 13.5321C21.4738 12.1404 21.4843 9.96507 22.8884 8.59038C23.8034 7.69453 25.0175 7.3466 26.1753 7.64836ZM2.99992 10.338C1.77554 10.6486 0.75464 10.9223 0.731186 10.9461C0.68414 10.9939 0.892112 11.9086 0.969945 11.9962C1.00675 12.0376 5.13409 11.0615 5.58262 10.9054C5.68709 10.869 5.41519 9.75781 5.30401 9.76688C5.26119 9.77041 4.2243 10.0274 2.99992 10.338ZM7.15487 17.5783C7.21658 17.7851 7.26709 17.9611 7.26709 17.9694C7.26709 17.9778 7.10367 18.0226 6.90386 18.0691C5.48922 18.3986 4.35126 19.6933 4.18514 21.1624C4.04539 22.3982 4.74077 23.8195 5.79897 24.4612C7.4772 25.4787 9.54516 25.0439 10.6229 23.4469L10.8468 23.1149L11.0461 23.2773C11.1556 23.3667 11.452 23.5853 11.7047 23.7631C12.2516 24.148 12.6638 24.5991 12.8702 25.0384L13.0208 25.3587L12.395 25.9848L11.7692 26.611L11.0711 26.1384C10.687 25.8784 10.2549 25.6359 10.1109 25.5992C9.62459 25.4757 9.07871 25.7413 8.83213 26.2212C8.779 26.3247 8.66346 26.7598 8.57546 27.1881L8.41536 27.9669H7.71236H7.0093L6.89286 27.3804C6.64234 26.1181 6.43644 25.7809 5.81405 25.6132C5.41201 25.5049 5.1408 25.6032 4.34904 26.1442L3.66514 26.6116L3.1338 26.0799L2.60245 25.5483L3.07284 24.8591C3.3316 24.4801 3.57043 24.0508 3.60364 23.9051C3.73626 23.3234 3.3619 22.7149 2.76165 22.5366C2.57395 22.4808 2.15655 22.3827 1.83414 22.3187L1.24793 22.2022V21.4945V20.7868L2.02572 20.6318C2.45356 20.5465 2.8857 20.4342 2.98608 20.3822C3.43095 20.1521 3.71371 19.5659 3.60647 19.096C3.57485 18.9572 3.34253 18.5413 3.09028 18.1716C2.83803 17.802 2.63165 17.4786 2.63165 17.453C2.63165 17.4274 2.86376 17.1758 3.14743 16.8939L3.66314 16.3813L4.39159 16.875C5.17664 17.4071 5.43463 17.4965 5.85508 17.3825C6.31793 17.257 6.63874 16.8692 6.74888 16.3023C6.80209 16.0287 6.80409 16.0324 6.92268 16.6139C6.98861 16.9375 7.09315 17.3715 7.15487 17.5783ZM7.93307 19.5387C8.33573 20.3339 8.78433 20.9822 9.54336 21.8658L9.92195 22.3064L9.75881 22.6142C9.53451 23.0373 8.99887 23.4995 8.5264 23.6779C8.20704 23.7984 8.02654 23.8212 7.57842 23.7973C6.65182 23.7479 6.00092 23.3043 5.59037 22.4424C5.39714 22.0367 5.38468 21.9636 5.41381 21.404C5.43602 20.9765 5.48915 20.7101 5.59715 20.485C5.94778 19.7538 6.75483 19.1981 7.49076 19.1812C7.73478 19.1756 7.7592 19.1953 7.93307 19.5387ZM29.0606 23.2942V23.8826H31.1015H33.1425V23.2942V22.7057H31.1015H29.0606V23.2942ZM28.4392 26.2064C28.2354 26.4578 28.0995 26.6838 28.1339 26.7143C28.1679 26.7445 28.9562 27.4024 29.8857 28.1762L31.5756 29.5832L31.9423 29.1731C32.144 28.9476 32.3097 28.7404 32.3106 28.7129C32.3119 28.6748 29.5384 26.327 28.9157 25.8391C28.8226 25.7662 28.7522 25.8205 28.4392 26.2064ZM17.299 27.6554V28.5207H17.8871H18.4752V27.6554V26.7901H17.8871H17.299V27.6554ZM25.5321 29.4179V31.4974H26.1212H26.7103L26.692 29.438L26.6737 27.3785L26.1029 27.3584L25.5321 27.3383V29.4179ZM20.2048 31.4628V32.0512H17.8525H15.5002V31.509C15.5002 31.2107 15.5209 30.9459 15.5463 30.9206C15.5716 30.8952 16.6302 30.8744 17.8986 30.8744H20.2048V31.4628ZM20.2048 33.6562C20.2048 34.1891 20.0258 34.5823 19.6749 34.8203C19.4249 34.9899 19.39 34.9937 17.927 35.0125C16.2477 35.0341 16.1389 35.0101 15.7587 34.5337C15.6037 34.3396 15.549 34.186 15.5197 33.8635C15.4571 33.1719 15.2479 33.2281 17.8849 33.2281H20.2048V33.6562Z" fill="white"/>
</svg>
