<svg width="34" height="32" viewBox="0 0 34 32" fill="none" xmlns="http://www.w3.org/2000/svg">
<path d="M17.0727 0.624512C8.03076 0.624512 0.692383 7.65301 0.692383 16.3131C0.692383 24.9732 8.03076 32.0017 17.0727 32.0017C26.1146 32.0017 33.453 24.9732 33.453 16.3131C33.453 7.65301 26.1146 0.624512 17.0727 0.624512ZM17.0727 5.33109C19.7918 5.33109 21.9868 7.43337 21.9868 10.0377C21.9868 12.642 19.7918 14.7443 17.0727 14.7443C14.3536 14.7443 12.1586 12.642 12.1586 10.0377C12.1586 7.43337 14.3536 5.33109 17.0727 5.33109ZM17.0727 27.6089C12.9776 27.6089 9.35757 25.6008 7.24451 22.5572C7.29365 19.4351 13.7966 17.7251 17.0727 17.7251C20.3324 17.7251 26.8517 19.4351 26.9009 22.5572C24.7878 25.6008 21.1678 27.6089 17.0727 27.6089Z" fill="#2E3A59"/>
</svg>
