<svg width="33" height="34" viewBox="0 0 33 34" fill="none" xmlns="http://www.w3.org/2000/svg">
<rect x="17.7307" y="21.1224" width="3.37078" height="9.55054" rx="1.68539" transform="rotate(-45 17.7307 21.1224)" fill="#2E3A59"/>
<path fill-rule="evenodd" clip-rule="evenodd" d="M21.1064 21.7184C24.9458 17.8789 24.9458 11.654 21.1064 7.8146C17.2669 3.97519 11.042 3.97519 7.20261 7.8146C3.36319 11.654 3.36319 17.8789 7.20261 21.7184C11.042 25.5578 17.2669 25.5578 21.1064 21.7184ZM19.1204 19.7322C21.8629 16.9898 21.8629 12.5434 19.1204 9.80097C16.378 7.05853 11.9316 7.05853 9.18918 9.80097C6.44674 12.5434 6.44674 16.9898 9.18918 19.7322C11.9316 22.4747 16.378 22.4747 19.1204 19.7322Z" fill="#2E3A59"/>
</svg>
