<svg width="21" height="25" viewBox="0 0 21 25" fill="none" xmlns="http://www.w3.org/2000/svg">
<path fill-rule="evenodd" clip-rule="evenodd" d="M4.68454 1.04067C4.41377 1.13565 4.17738 1.29909 4.03656 1.48865C3.81937 1.78103 3.7728 2.02379 3.7728 2.86354V3.6352L2.73774 3.63566C1.75352 3.63607 1.69059 3.64138 1.4564 3.74398C1.32098 3.80327 1.13039 3.93954 1.03287 4.04671C0.736184 4.37272 0.704133 4.52943 0.704133 5.65326C0.704133 6.58919 0.710027 6.65398 0.805107 6.7677C0.944707 6.93467 1.1942 6.93467 1.3338 6.7677C1.42863 6.6543 1.43477 6.58878 1.43477 5.68864C1.43477 4.28511 1.39682 4.3225 2.82054 4.3225H3.7728V4.65782C3.7728 5.29605 4.02887 5.73757 4.52507 5.9549C4.99345 6.16008 5.62112 6.07252 5.98142 5.75168C6.24148 5.52015 6.36637 5.21485 6.39262 4.74634L6.41639 4.3225H7.77357H9.1308V4.65782C9.1308 5.0943 9.23172 5.40185 9.45579 5.64808C10.07 6.32311 11.2706 6.15426 11.6446 5.34031C11.6877 5.24642 11.7343 4.98021 11.7486 4.74634L11.7744 4.3225H13.1249H14.4755L14.5013 4.74634C14.5155 4.98021 14.5622 5.24642 14.6053 5.34031C14.9792 6.15426 16.1799 6.32311 16.7941 5.64808C17.0182 5.40185 17.1191 5.0943 17.1191 4.65782V4.3225H18.0713C18.8272 4.3225 19.053 4.33684 19.1665 4.39201C19.4774 4.54326 19.4571 4.01363 19.4571 11.9871V19.2439L19.5698 19.3436C19.7196 19.4759 19.9461 19.4731 20.0819 19.3372L20.1878 19.2311V11.9454C20.1878 3.85133 20.212 4.43463 19.859 4.04671C19.7615 3.93954 19.5709 3.80327 19.4355 3.74398C19.2014 3.64143 19.1382 3.63607 18.1579 3.63566L17.1267 3.6352L17.1107 2.77607C17.0929 1.81819 17.0485 1.65136 16.7317 1.35335C16.4548 1.09295 16.216 1.00264 15.8039 1.00264C15.3919 1.00264 15.153 1.09295 14.8762 1.35335C14.5594 1.65136 14.515 1.81819 14.4972 2.77607L14.4812 3.6352H13.1249H11.7687L11.7527 2.77607C11.7349 1.81819 11.6905 1.65136 11.3737 1.35335C11.0968 1.09295 10.858 1.00264 10.4459 1.00264C10.0339 1.00264 9.79504 1.09295 9.51823 1.35335C9.20143 1.65136 9.157 1.81819 9.13918 2.77607L9.1232 3.6352H7.76695H6.41069L6.39471 2.77607C6.37689 1.81819 6.33246 1.65136 6.01566 1.35335C5.67572 1.03357 5.09413 0.896929 4.68454 1.04067ZM5.33003 1.72353C5.39618 1.75505 5.50032 1.85059 5.5614 1.93581C5.67104 2.0889 5.67246 2.10879 5.67246 3.50598C5.67246 5.03744 5.65643 5.14818 5.41293 5.29829C5.23471 5.40812 4.88951 5.40001 4.73037 5.28226C4.51547 5.12326 4.49628 4.95908 4.5126 3.42117L4.52779 1.99291L4.64957 1.86974C4.85103 1.66593 5.09769 1.61292 5.33003 1.72353ZM10.688 1.72353C10.7542 1.75505 10.8583 1.85059 10.9194 1.93581C11.029 2.0889 11.0305 2.10879 11.0305 3.50598C11.0305 5.03744 11.0144 5.14818 10.7709 5.29829C10.6102 5.39731 10.2586 5.3991 10.1107 5.30164C9.87878 5.14887 9.86143 5.02397 9.86143 3.50598C9.86143 2.10879 9.86285 2.0889 9.97249 1.93581C10.1547 1.68151 10.4288 1.60018 10.688 1.72353ZM16.046 1.72353C16.1122 1.75505 16.2163 1.85059 16.2774 1.93581C16.387 2.0889 16.3884 2.10879 16.3884 3.50598C16.3884 5.02397 16.3711 5.14887 16.1392 5.30164C15.9913 5.3991 15.6396 5.39731 15.479 5.29829C15.2355 5.14818 15.2194 5.03744 15.2194 3.50598C15.2194 2.10879 15.2208 2.0889 15.3305 1.93581C15.5127 1.68151 15.7868 1.60018 16.046 1.72353ZM0.914313 7.84998C0.855813 7.87271 0.784552 7.93237 0.756008 7.98254C0.719915 8.04605 0.704133 10.4042 0.704133 15.7435C0.704133 24.402 0.670427 23.6771 1.09147 24.0733C1.51334 24.4701 0.679828 24.4376 10.4459 24.4376C20.2121 24.4376 19.3785 24.4701 19.8004 24.0733C20.171 23.7246 20.1878 23.6361 20.1878 22.0209C20.1878 21.2003 20.1682 20.5941 20.1401 20.5447C20.0274 20.3467 19.572 20.3605 19.4888 20.5645C19.4713 20.6071 19.4571 21.2496 19.4571 21.9922C19.4571 23.1095 19.4444 23.3657 19.3832 23.4769C19.222 23.7702 19.8723 23.7503 10.4459 23.7503C2.87412 23.7503 1.85157 23.7422 1.72542 23.6808C1.41407 23.5293 1.43477 24.0986 1.43477 15.6933C1.43477 8.47502 1.42995 8.03876 1.34953 7.94932C1.24748 7.83587 1.06059 7.79321 0.914313 7.84998ZM6.81585 7.89456C6.76159 7.915 6.2707 8.43973 5.72497 9.0606C5.17928 9.68142 4.72112 10.1784 4.7069 10.1651C4.69267 10.1517 4.56983 9.98113 4.43393 9.78612C4.20695 9.46034 4.17217 9.43032 4.00695 9.4174C3.78883 9.40036 3.62668 9.52884 3.62668 9.71872C3.62668 9.79693 3.77855 10.0794 4.02263 10.4552C4.45288 11.1177 4.56228 11.2075 4.80256 11.0955C4.9125 11.0443 5.652 10.2352 6.9725 8.72125C7.33572 8.30484 7.37908 8.18346 7.22252 8.02121C7.09077 7.88457 6.95462 7.84219 6.81585 7.89456ZM8.49729 9.17643C7.47464 9.46904 7.32783 10.7299 8.26519 11.1693L8.51672 11.2872H12.5809C15.6413 11.2872 16.6946 11.2734 16.8455 11.2312C17.1091 11.1575 17.4683 10.8196 17.5467 10.5717C17.6855 10.1319 17.5343 9.62804 17.1893 9.38052C16.8407 9.13038 16.8958 9.13332 12.5936 9.13758C10.4078 9.13973 8.56441 9.15724 8.49729 9.17643ZM16.6474 9.87423C16.9047 10.0032 16.957 10.2983 16.756 10.4874L16.6364 10.5999H12.62H8.60367L8.47323 10.4541C8.37206 10.341 8.34931 10.2778 8.37177 10.1721C8.40606 10.011 8.48165 9.91639 8.61765 9.86456C8.78209 9.80184 16.5216 9.81123 16.6474 9.87423ZM6.81585 12.4308C6.76159 12.4512 6.2707 12.9759 5.72497 13.5968C5.17928 14.2176 4.72112 14.7146 4.7069 14.7013C4.69267 14.6879 4.56983 14.5173 4.43393 14.3223C4.20695 13.9965 4.17217 13.9665 4.00695 13.9536C3.78883 13.9366 3.62668 14.0651 3.62668 14.2549C3.62668 14.3331 3.77855 14.6156 4.02263 14.9914C4.45317 15.6544 4.56184 15.7434 4.80378 15.6317C4.90977 15.5828 5.80665 14.5984 7.09325 13.1189C7.33558 12.8403 7.36636 12.7065 7.22252 12.5574C7.09077 12.4208 6.95462 12.3784 6.81585 12.4308ZM8.61935 13.7004C8.19812 13.7922 7.92564 13.9721 7.76992 14.2612C7.47825 14.8028 7.71103 15.4761 8.27644 15.7261C8.49544 15.8229 8.51668 15.8234 12.6251 15.8224C16.5432 15.8214 16.7637 15.817 16.9486 15.7363C17.3555 15.5587 17.607 15.1846 17.6051 14.7595C17.6033 14.3447 17.3781 14.0061 16.9669 13.7998L16.7538 13.6928L12.7353 13.686C10.5251 13.6823 8.67293 13.6887 8.61935 13.7004ZM16.758 14.5086C16.9116 14.6766 16.9108 14.878 16.756 15.0236L16.6364 15.1361H12.6157C8.67722 15.1361 8.59305 15.1343 8.4988 15.0456C8.37118 14.9256 8.3346 14.7713 8.39709 14.6168C8.50357 14.3534 8.40572 14.359 12.703 14.37L16.6405 14.3801L16.758 14.5086ZM6.80202 17.0002C6.76695 17.0134 6.29788 17.5221 5.75965 18.1306C5.22141 18.7391 4.76579 19.2535 4.74708 19.2735C4.72843 19.2937 4.60661 19.1455 4.47641 18.9444C4.17456 18.4781 4.00461 18.3913 3.75502 18.576C3.54353 18.7324 3.58167 18.8842 3.98975 19.51C4.41903 20.1682 4.48571 20.2337 4.70587 20.2139C4.85366 20.2006 4.9784 20.0762 6.05287 18.8705C6.70411 18.1396 7.25813 17.4925 7.284 17.4325C7.39851 17.1669 7.09125 16.8912 6.80202 17.0002ZM8.27839 18.3449C7.85871 18.5374 7.57839 19.0311 7.64639 19.4579C7.71673 19.8991 8.08867 20.2655 8.55964 20.3575C8.73942 20.3926 10.0317 20.4042 12.7862 20.3953L16.7538 20.3825L16.9669 20.2755C17.3781 20.0692 17.6033 19.7306 17.6051 19.3157C17.607 18.8907 17.3555 18.5165 16.9486 18.3389C16.7636 18.2582 16.5452 18.2539 12.6135 18.2547C8.60815 18.2555 8.46689 18.2584 8.27839 18.3449ZM16.756 19.0517C16.9108 19.1973 16.9116 19.3987 16.758 19.5667L16.6405 19.6952L12.7156 19.7075C9.35301 19.718 8.76621 19.7101 8.6195 19.6524C8.3384 19.542 8.27917 19.2363 8.4988 19.0297C8.59305 18.941 8.67722 18.9392 12.6157 18.9392H16.6364L16.756 19.0517Z" fill="white"/>
</svg>
